<svg xmlns="http://www.w3.org/2000/svg">
 <symbol id="account" viewBox="0 0 81.2 81.2">
 <path d="M40.6 48.7c-8.2 0-14.8-6.6-14.8-14.8s6.6-14.8 14.8-14.8c8.1 0 14.8 6.6 14.8 14.8 0 8.2-6.6 14.8-14.8 14.8zm0-26.7c-6.6 0-11.9 5.4-11.9 11.9s5.4 11.9 11.9 11.9c6.6 0 11.9-5.4 11.9-11.9.1-6.5-5.3-11.9-11.9-11.9z" vector-effect="non-scaling-stroke"/><path d="M40.6 77.7C20.1 77.7 3.5 61 3.5 40.6S20.1 3.5 40.6 3.5s37.1 16.7 37.1 37.1c0 20.5-16.6 37.1-37.1 37.1zm-17.2-7.5c5.2 3 11.2 4.6 17.2 4.6s12-1.6 17.2-4.6c-1.1-7.7-7.3-13.7-15-14.7-.7-.1-1.5-.1-2.3-.1-8.5 0-15.9 6.3-17.1 14.8zm17.2-17.6c5.4 0 10.4 2.1 14.3 5.9 2.8 2.8 4.7 6.3 5.5 10.1 3.4-2.4 6.3-5.4 8.7-8.8 5.1-7.6 7-16.7 5.2-25.7-1.7-9-6.9-16.8-14.5-21.9-5.7-3.8-12.3-5.9-19.2-5.9-11.4 0-22.1 5.6-28.4 15.1C7.1 29 5.2 38.1 7 47.1c1.7 8.7 6.6 16.3 13.8 21.5.8-3.8 2.7-7.2 5.4-9.9 3.8-4 9-6.1 14.4-6.1z"/>
 </symbol>

 <symbol id="support" viewBox="0 0 23 23">
 <path d="M11.4353 23.1059C10.3059 23.1059 9.27058 22.1647 9.27058 20.9412C9.27058 19.8118 10.2118 18.7765 11.4353 18.7765C12.0941 18.7765 12.7529 19.0588 13.1294 19.6235L17.2706 17.6471V7.01176C17.2706 3.71764 14.7294 1.17647 11.4353 1.17647C8.14117 1.17647 5.59999 3.71764 5.59999 7.01176V17.9294C5.59999 18.2118 5.41176 18.4 5.1294 18.4H2.68235C1.45882 18.4 0.517639 17.4588 0.517639 16.2353V10.4C0.517639 9.17647 1.45882 8.23529 2.68235 8.23529H4.75293V7.01176C4.75293 3.24706 7.7647 0.235291 11.5294 0.235291C15.2941 0.235291 18.3059 3.24706 18.3059 7.01176V8.23529H20.3765C21.6 8.23529 22.5412 9.17647 22.5412 10.4V16.2353C22.5412 17.4588 21.6 18.4 20.3765 18.4H17.9294L13.5059 20.4706C13.6 20.5647 13.6 20.7529 13.6 20.9412C13.6 22.0706 12.5647 23.1059 11.4353 23.1059ZM11.4353 19.7176C10.7765 19.7176 10.2118 20.2823 10.2118 20.9412C10.2118 21.6 10.7765 22.1647 11.4353 22.1647C12.0941 22.1647 12.6588 21.6 12.6588 20.9412C12.6588 20.2823 12.0941 19.7176 11.4353 19.7176ZM18.2118 17.5529H20.2823C20.9412 17.5529 21.5059 16.9882 21.5059 16.3294V10.4941C21.5059 9.83529 20.9412 9.27059 20.2823 9.27059H18.2118V17.5529ZM2.68235 9.27059C2.02352 9.27059 1.45882 9.83529 1.45882 10.4941V16.3294C1.45882 16.9882 2.02352 17.5529 2.68235 17.5529H4.75293V9.17647L2.68235 9.27059Z"/>
 </symbol>

 <symbol id="favorites">
 <path d="M13.1008 24.3782L12.762 24.1522C8.01858 20.9899 0 14.7785 0 9.24452C0 4.50112 3.27519 1 7.67977 1C9.48677 1 11.1808 1.79059 13.1008 3.71054C15.0208 1.90353 16.8277 1 18.6347 1C20.6676 1 22.4746 1.79059 23.8298 3.14585C25.2981 4.72698 26.2016 6.87279 26.0886 9.35742C25.9757 15.3432 16.2631 22.3452 13.3267 24.2651L13.1008 24.3782ZM7.67977 2.12938C3.83988 2.12938 1.12938 5.17875 1.12938 9.24452C1.12938 14.3267 9.2609 20.4252 13.1008 23.0229C18.8607 19.07 24.9592 13.5361 25.0722 9.24452C25.0722 7.0987 24.3945 5.17867 23.1522 3.93636C22.0229 2.80698 20.4417 2.12938 18.7476 2.12938C17.0536 2.12938 15.3595 3.03291 13.5525 4.83991L13.1008 5.29169L12.649 4.83991C10.842 3.03291 9.2609 2.12938 7.67977 2.12938Z"/>
 </symbol>

 <symbol id="cart" viewBox="0 0 24 20">
 <path d="M1.04707 0.15329C0.764712 0.15329 0.576477 0.341525 0.576477 0.623878C0.576477 0.906231 0.764712 1.09447 1.04707 1.09447H3.68236L6.31765 13.7062C6.31765 13.9885 6.60001 14.2709 6.88236 14.2709H19.4C19.6824 14.2709 19.8706 14.0827 19.8706 13.8003C19.8706 13.518 19.5882 13.3298 19.4 13.3298H7.25883L6.78824 11.3533H20.3412C20.5294 11.3533 20.8118 11.1651 20.8118 10.9768L22.6 3.44741C22.6941 3.16505 22.4118 2.88267 22.1294 2.88267H5.09412L4.62354 0.717973C4.52942 0.529737 4.34118 0.341479 4.15295 0.341479H1.04707V0.15329ZM5.28236 3.72975H21.5647L20.0588 10.318H6.60001L5.28236 3.72975ZM9.61177 15.8709C8.38824 15.8709 7.35295 16.9062 7.35295 18.1297C7.35295 19.3533 8.38824 20.3886 9.61177 20.3886C10.8353 20.3886 11.8706 19.3533 11.8706 18.1297C11.8706 16.8121 10.8353 15.8709 9.61177 15.8709ZM16.6706 15.8709C15.4471 15.8709 14.4118 16.9062 14.4118 18.1297C14.4118 19.3533 15.4471 20.3886 16.6706 20.3886C17.8941 20.3886 18.9294 19.3533 18.9294 18.1297C18.9294 16.8121 17.8941 15.8709 16.6706 15.8709ZM9.61177 16.8121C10.2706 16.8121 10.8353 17.3768 10.8353 18.0356C10.8353 18.6945 10.2706 19.2592 9.61177 19.2592C8.95295 19.2592 8.38824 18.6945 8.38824 18.0356C8.38824 17.3768 8.95295 16.8121 9.61177 16.8121ZM16.6706 16.8121C17.3294 16.8121 17.8941 17.3768 17.8941 18.0356C17.8941 18.6945 17.3294 19.2592 16.6706 19.2592C16.0118 19.2592 15.4471 18.6945 15.4471 18.0356C15.3529 17.3768 15.9177 16.8121 16.6706 16.8121Z"/>
 </symbol>

 <symbol id="eye" viewBox="0 0 24 24">
 <path d="M12 4.5C7 4.5 2.73 7.61 1 12c1.73 4.39 6 7.5 11 7.5s9.27-3.11 11-7.5c-1.73-4.39-6-7.5-11-7.5zM12 17c-2.76 0-5-2.24-5-5s2.24-5 5-5 5 2.24 5 5-2.24 5-5 5zm0-8c-1.66 0-3 1.34-3 3s1.34 3 3 3 3-1.34 3-3-1.34-3-3-3z"/>
 </symbol>

 <symbol id="inst" viewBox="0 0 24 25">
 <path d="M22,2c-0.2-1-1-1.8-2-2c0,0-0.1,0-0.1,0H2.2C2.1,0,2,0,1.9,0.1C0.9,0.3,0.2,1.1,0,2.1c0,0,0,0.1,0,0.1v18.5  c0,0.1,0,0.2,0.1,0.4c0.2,1,1,1.8,2,1.9c0,0,0.1,0,0.1,0h17.6c0.1,0,0.2,0,0.3-0.1c0.9-0.2,1.6-1,1.8-1.9c0-0.1,0-0.2,0-0.3V2.3  C22,2.2,22,2.1,22,2z M11,6.8c2.5,0,4.5,2.2,4.5,4.8c-0.1,2.5-2.1,4.6-4.6,4.6c-2.4-0.1-4.4-2.1-4.4-4.7C6.6,8.9,8.6,6.8,11,6.8z   M19.6,9.4c0,3.4,0,6.8,0,10.2c0,0.5-0.4,0.9-0.9,0.9c-5.2,0-10.3,0-15.5,0c-0.5,0-0.9-0.4-0.9-0.9c0-3.4,0-6.8,0-10.2V9.3  c0.7,0,1.4,0,2.1,0c-0.5,1.9-0.4,3.8,0.5,5.6c0.6,1.2,1.5,2.1,2.7,2.8c2.3,1.3,5,1.2,7.2-0.3c0.8-0.6,1.5-1.3,2-2.2  c0.5-0.9,0.8-1.8,0.9-2.9c0.1-1,0-2-0.3-3L19.6,9.4L19.6,9.4z" vector-effect="non-scaling-stroke"/>
 </symbol>

 <symbol id="facebook" viewBox="0 0 58.69300079345703 58.69300079345703">
 <path d="M40.43,21.739h-7.645v-5.014c0-1.883,1.248-2.322,2.127-2.322c0.877,0,5.395,0,5.395,0V6.125l-7.43-0.029  c-8.248,0-10.125,6.174-10.125,10.125v5.518h-4.77v8.53h4.77c0,10.947,0,24.137,0,24.137h10.033c0,0,0-13.32,0-24.137h6.77  L40.43,21.739z" />
 </symbol>

 <symbol id="linkedin" viewBox="0 0 58.69300079345703 58.69300079345703">
 <path d="M30.071,27.101v-0.077c-0.016,0.026-0.033,0.052-0.05,0.077H30.071z" vector-effect="non-scaling-stroke"/>
 <path d="M49.265,4.667H7.145c-2.016,0-3.651,1.596-3.651,3.563v42.613c0,1.966,1.635,3.562,3.651,3.562h42.12   c2.019,0,3.654-1.597,3.654-3.562V8.23C52.919,6.262,51.283,4.667,49.265,4.667z M18.475,46.304h-7.465V23.845h7.465V46.304z    M14.743,20.777h-0.05c-2.504,0-4.124-1.725-4.124-3.88c0-2.203,1.67-3.88,4.223-3.88c2.554,0,4.125,1.677,4.175,3.88   C18.967,19.052,17.345,20.777,14.743,20.777z M45.394,46.304h-7.465V34.286c0-3.018-1.08-5.078-3.781-5.078   c-2.062,0-3.29,1.389-3.831,2.731c-0.197,0.479-0.245,1.149-0.245,1.821v12.543h-7.465c0,0,0.098-20.354,0-22.459h7.465v3.179   c0.992-1.53,2.766-3.709,6.729-3.709c4.911,0,8.594,3.211,8.594,10.11V46.304z" vector-effect="non-scaling-stroke"/>
 </symbol>

 <symbol id="twitter" viewBox="0 0 58.69300079345703 58.69300079345703">
 <path d="M52.837,15.065c-1.811,0.805-3.76,1.348-5.805,1.591c2.088-1.25,3.689-3.23,4.444-5.592c-1.953,1.159-4.115,2-6.418,2.454  c-1.843-1.964-4.47-3.192-7.377-3.192c-5.581,0-10.106,4.525-10.106,10.107c0,0.791,0.089,1.562,0.262,2.303  c-8.4-0.422-15.848-4.445-20.833-10.56c-0.87,1.492-1.368,3.228-1.368,5.082c0,3.506,1.784,6.6,4.496,8.412  c-1.656-0.053-3.215-0.508-4.578-1.265c-0.001,0.042-0.001,0.085-0.001,0.128c0,4.896,3.484,8.98,8.108,9.91  c-0.848,0.23-1.741,0.354-2.663,0.354c-0.652,0-1.285-0.063-1.902-0.182c1.287,4.015,5.019,6.938,9.441,7.019  c-3.459,2.711-7.816,4.327-12.552,4.327c-0.815,0-1.62-0.048-2.411-0.142c4.474,2.869,9.786,4.541,15.493,4.541  c18.591,0,28.756-15.4,28.756-28.756c0-0.438-0.009-0.875-0.028-1.309C49.769,18.873,51.483,17.092,52.837,15.065z" vector-effect="non-scaling-stroke"/>
 </symbol>

 <symbol id="bell" viewBox="-2.9959999999999987 0 56 56">
 <path d="M49.6,48.9c-0.2-0.3-0.5-0.4-0.8-0.6c-1.4-0.7-5.9-2.9-6.3-19c-0.2-9.1-4.6-13.5-8.2-15.5c-1.9-1.1-3.9-1.7-5.6-2.1  c1.4-1.2,2.3-3,2.3-5C31,3,28,0,24.2,0c-3.8,0-6.8,3-6.8,6.7c0,2,0.9,3.8,2.3,5C8.8,14,7.5,25.6,7.4,29.4c-0.1,4-0.4,16.1-6.3,19  c-0.3,0.2-0.6,0.3-0.8,0.6L0,49.4L0.3,50c0.3,0.7,0.4,0.9,7,0.9c3.2,0,7.2,0,10.6-0.1c0.9,3.1,3.8,5.2,7.2,5.2  c3.3,0,6.1-2.1,7.1-5.1c3.4,0.1,7.3,0.2,10.5,0.2c0,0,0,0,0,0c6.6,0,6.7-0.4,7-1l0.3-0.8L49.6,48.9z M19.5,6.7  c0-2.6,2.1-4.7,4.8-4.7C26.9,2,29,4.1,29,6.7c0,2.3-1.6,4.1-3.7,4.6c0,0-0.1,0-0.1,0h-0.1c-0.3,0-0.8,0-1.4,0c-0.2,0-0.3,0-0.4,0  C21.1,10.9,19.5,9,19.5,6.7z M25.1,54c-2.2,0-4.1-1.3-5-3.3c2.2,0,4-0.1,4.9-0.1c1,0,2.8,0.1,5.1,0.2C29.1,52.7,27.2,54,25.1,54z   M42.7,49.2C42.7,49.2,42.7,49.2,42.7,49.2c-6.1,0-15.1-0.4-17.7-0.5c-2.6,0.1-11.5,0.2-17.7,0.2c-1.3,0-2.4-0.1-3.2-0.1  c2.2-2,5-6.8,5.3-19.3c0.4-14.2,9.8-16,14-16c0.2,0,0.4,0,0.6,0l0,0l1.1,0c2.5,0,15,0.8,15.4,16c0.3,12.5,3.1,17.4,5.3,19.4  C45.1,49,44,49.2,42.7,49.2z" vector-effect="non-scaling-stroke"/>
 </symbol>

 <symbol id="tick" viewBox="0 0 50.599998474121094 50.70000076293945">
 <path d="M21.1,46c-0.9,0-1.7-0.3-2.4-0.8l-17.1-13c-1.8-1.3-2.1-3.8-0.8-5.6c1.3-1.8,3.8-2.1,5.6-0.8l13.7,10.4L41.3,4.4  c1.2-1.8,3.7-2.4,5.5-1.1C48.7,4.5,49.2,7,48,8.8c0,0,0,0,0,0L24.4,44.2C23.7,45.3,22.4,46,21.1,46z" vector-effect="non-scaling-stroke"/>
 </symbol>

 <symbol id="close" viewBox="0 0 17.5 17.5">
 <path d="M0.7,15.5c-0.2,0-0.4-0.1-0.5-0.2c-0.3-0.3-0.3-0.8,0-1.1l14-14c0.3-0.3,0.8-0.3,1.1,0c0.3,0.3,0.3,0.7,0,1l-14,14    C1.1,15.4,0.9,15.5,0.7,15.5z" vector-effect="non-scaling-stroke"/>
 <path d="M14.7,15.5c-0.2,0-0.4-0.1-0.5-0.2l-14-14C-0.1,1,0,0.5,0.3,0.2c0.3-0.3,0.7-0.3,1,0l14,14c0.3,0.3,0.3,0.8,0,1.1    C15.1,15.4,14.9,15.5,14.7,15.5z" vector-effect="non-scaling-stroke"/>
 </symbol>

 <symbol id="exit" viewBox="0 0 54 56">
 <g transform="translate(0,-270.54165)">
 <path d="M4.3,277.4l0,37c0,0.3,0.2,0.6,0.5,0.7l21.3,5.9c0.4,0.1,0.7-0.2,0.7-0.6l-0.1-5.6h11.8c0.3,0,0.6-0.3,0.6-0.6v-11.6   c0-0.3-0.3-0.6-0.6-0.6h-0.8c-0.3,0-0.6,0.3-0.6,0.6v10.2H26.8l0.1-29.7c0-0.3-0.2-0.5-0.4-0.6l-15-4h25.8v10.2   c0,0.3,0.3,0.6,0.6,0.6h0.8c0.3,0,0.6-0.3,0.6-0.6v-11.6c0-0.3-0.3-0.6-0.6-0.6l-33.6,0C4.7,276.6,4.3,277,4.3,277.4z M24.9,318.6   l-18.6-5.7v-33.7l18.6,5.3C25.1,295.9,24.9,318.6,24.9,318.6L24.9,318.6z" vector-effect="non-scaling-stroke"/>
 <path d="M41.6,292.8v2H30.3c-0.3,0-0.6,0.3-0.6,0.6v0.8c0,0.3,0.3,0.6,0.6,0.6h11.3v2c0,0.4,0.5,0.7,0.8,0.5l5.9-3   c0.4-0.2,0.4-0.8,0-1l-5.9-3C42,292.1,41.6,292.4,41.6,292.8z" vector-effect="non-scaling-stroke"/>
 </g>
 </symbol>

<symbol id="search" viewBox="0 0 24 24">
<g><path d="M15.5 14h-.79l-.28-.27C15.41 12.59 16 11.11 16 9.5 16 5.91 13.09 3 9.5 3S3 5.91 3 9.5 5.91 16 9.5 16c1.61 0 3.09-.59 4.23-1.57l.27.28v.79l5 4.99L20.49 19l-4.99-5zm-6 0C7.01 14 5 11.99 5 9.5S7.01 5 9.5 5 14 7.01 14 9.5 11.99 14 9.5 14z" vector-effect="non-scaling-stroke"/></g>
</symbol>

<symbol id="cross" viewBox="0 0 16 16">
<g>
<path d="M0.7,15.5c-0.2,0-0.4-0.1-0.5-0.2c-0.3-0.3-0.3-0.8,0-1.1l14-14c0.3-0.3,0.8-0.3,1.1,0c0.3,0.3,0.3,0.7,0,1l-14,14    C1.1,15.4,0.9,15.5,0.7,15.5z" vector-effect="non-scaling-stroke"/>
<path d="M14.7,15.5c-0.2,0-0.4-0.1-0.5-0.2l-14-14C-0.1,1,0,0.5,0.3,0.2c0.3-0.3,0.7-0.3,1,0l14,14c0.3,0.3,0.3,0.8,0,1.1    C15.1,15.4,14.9,15.5,14.7,15.5z" vector-effect="non-scaling-stroke"/>
</g>
</symbol>

<symbol id="photo" viewBox="0 -7.499610288386592 68 68">
<path d="M46,29.2c0,6.8-5.5,12.4-12.4,12.4c-6.8,0-12.4-5.5-12.4-12.4c0-6.8,5.5-12.4,12.4-12.4C40.4,16.9,46,22.4,46,29.2z" vector-effect="non-scaling-stroke"/>
<path d="M67.2,5.6H44.4V3.1c0-3.4,0-3,0-3H23.1c0,0,0-0.4,0,3v2.6c0,0-2.3,0-4.2,0c-1.9,0-4.1,0.8-4.1,0.8L0,11.1c0,0,0,2.1,0,3.5   c0,1.5,0,34.6,0,34.6c0,1.7,0,3.1,0,3.1s67.1,0,67.2,0c0.1,0,0-1.4,0-3.1V8.7C67.2,7,67.2,5.6,67.2,5.6z M33.6,47.3   c-10,0-18.1-8.1-18.1-18.1c0-10,8.1-18.1,18.1-18.1c10,0,18.1,8.1,18.1,18.1C51.7,39.2,43.6,47.3,33.6,47.3z" vector-effect="non-scaling-stroke"/>
<path d="M13.6,4.1L2.8,7.7V2.8c0-0.5,0-0.9,0-0.9h10.8c0,0,0,0.4,0,0.9V4.1z" vector-effect="non-scaling-stroke"/>
</symbol>

<symbol id="arrow-bottom" viewBox="0 0 24 24">
<g><path xmlns:default="http://www.w3.org/2000/svg" d="M16.59 8.59L12 13.17 7.41 8.59 6 10l6 6 6-6z" vector-effect="non-scaling-stroke"/></g>
</symbol>

<symbol id="close-two" viewBox="0 0 24 24">
<g><path xmlns:default="http://www.w3.org/2000/svg" d="M19 6.41L17.59 5 12 10.59 6.41 5 5 6.41 10.59 12 5 17.59 6.41 19 12 13.41 17.59 19 19 17.59 13.41 12z" vector-effect="non-scaling-stroke"/></g>
</symbol>

<symbol id="info" viewBox="0 0 24 24">
<path d="M10.5,2c4.7,0,8.5,3.8,8.5,8.5S15.2,19,10.5,19S2,15.2,2,10.5S5.8,2,10.5,2 M10.5,0C4.7,0,0,4.7,0,10.5  S4.7,21,10.5,21S21,16.3,21,10.5S16.3,0,10.5,0L10.5,0z"/>
<path d="M12.2,7.4c0.3-0.3,0.4-0.6,0.4-0.9c0-0.4-0.1-0.7-0.4-0.9c-0.3-0.3-0.6-0.4-1-0.4c-0.4,0-0.7,0.1-1,0.4   C10,5.8,9.8,6.1,9.8,6.4c0,0.4,0.1,0.7,0.4,0.9c0.3,0.3,0.6,0.4,1,0.4C11.6,7.7,11.9,7.6,12.2,7.4z M11.6,15.8   c0.5-0.2,0.7-0.7,0.5-0.9c-0.1-0.1-0.3,0.1-0.5,0.1c-0.3,0-0.5,0-0.6-0.1c-0.1-0.1-0.2-0.3-0.2-0.6c0-0.1,0-0.3,0.1-0.5   c0-0.2,0.1-0.4,0.1-0.6l0.6-2.1c0.1-0.2,0.1-0.4,0.1-0.6c0-0.2,0-0.4,0-0.5c0-0.4-0.2-0.8-0.5-1.1c-0.3-0.3-0.7-0.4-1.3-0.4   c-0.3,0-0.6,0-1,0.2C8.3,9,8.4,9.6,8.6,9.6c0.3,0,0.5,0.1,0.6,0.2c0.1,0.1,0.2,0.3,0.2,0.6c0,0.1,0,0.3-0.1,0.5   c0,0.2-0.1,0.4-0.1,0.6l-0.6,2.1c0,0.2-0.1,0.4-0.1,0.6c0,0.2,0,0.3,0,0.5c0,0.4,0.2,0.8,0.5,1.1c0.3,0.3,0.8,0.5,1.4,0.5   C10.6,16.1,11.1,16,11.6,15.8z" />
</symbol>

<symbol id="profile" viewBox="0 0 22 22">
<path fill-rule="evenodd" clip-rule="evenodd" d="M11 22C4.92487 22 0 17.0751 0 11C0 4.92487 4.92487 0 11 0C17.0751 0 22 4.92487 22 11C22 17.0751 17.0751 22 11 22ZM18.3995 16.1246C19.4086 14.6703 20 12.9042 20 11C20 6.02944 15.9706 2 11 2C6.02944 2 2 6.02944 2 11C2 12.9042 2.59138 14.6703 3.6005 16.1246C4.72595 14.6381 7.3706 14 11 14C14.6294 14 17.274 14.6381 18.3995 16.1246ZM16.9647 17.7398C16.672 16.6874 14.5694 16 11 16C7.43062 16 5.328 16.6874 5.03532 17.7398C6.6233 19.1462 8.71194 20 11 20C13.2881 20 15.3767 19.1462 16.9647 17.7398ZM11 14C8.76086 14 7 12.4274 7 9C7 6.75576 8.5791 5 11 5C13.4142 5 15 6.92158 15 9.2C15 12.4796 13.2181 14 11 14ZM9 9C9 11.2693 9.81821 12 11 12C12.1777 12 13 11.2984 13 9.2C13 7.95042 12.2157 7 11 7C9.73374 7 9 7.81582 9 9Z"/>
</symbol>

<symbol id="creditcard" viewBox="0 0 22 16">
<path fill-rule="evenodd" clip-rule="evenodd" d="M1.81818 0H20.1818C21.186 0 22 0.89543 22 2V14C22 15.1046 21.186 16 20.1818 16H1.81818C0.814028 16 0 15.1046 0 14V2C0 0.89543 0.814028 0 1.81818 0ZM2 7V14H20V7H2ZM2 5H20V2H2V5Z"/>
</symbol>

<symbol id="email-preferences" viewBox="0 0 22 18">
<path fill-rule="evenodd" clip-rule="evenodd" d="M2 0H20C21.1046 0 22 0.89543 22 2V16C22 17.1046 21.1046 18 20 18H2C0.89543 18 0 17.1046 0 16V2C0 0.89543 0.89543 0 2 0ZM2 6.61811V16H20V6.61853L11 11.1185L2 6.61811ZM2 4.38199L11 8.88245L20 4.38247V2H2V4.38199Z"/>
</symbol>

<symbol id="lock" viewBox="0 0 16 20">
<path fill-rule="evenodd" clip-rule="evenodd" d="M3 5V8H2C0.931649 8 0 8.77637 0 9.83333V18.1667C0 19.2236 0.931649 20 2 20H14C15.0684 20 16 19.2236 16 18.1667V9.83333C16 8.77637 15.0684 8 14 8H13V5C13 2.23858 10.7614 0 8 0C5.23858 0 3 2.23858 3 5ZM11 5V8H5V5C5 3.34315 6.34315 2 8 2C9.65685 2 11 3.34315 11 5ZM2 18V10H14V18H2ZM9 14C9 14.5523 8.55229 15 8 15C7.44772 15 7 14.5523 7 14C7 13.4477 7.44772 13 8 13C8.55229 13 9 13.4477 9 14Z"/>
</symbol>

<symbol id="plus" viewBox="0 0 24 24">
<g><path xmlns:default="http://www.w3.org/2000/svg" d="M13 7h-2v4H7v2h4v4h2v-4h4v-2h-4V7zm-1-5C6.48 2 2 6.48 2 12s4.48 10 10 10 10-4.48 10-10S17.52 2 12 2zm0 18c-4.41 0-8-3.59-8-8s3.59-8 8-8 8 3.59 8 8-3.59 8-8 8z" vector-effect="non-scaling-stroke"/></g>
</symbol>

<symbol id="heart" viewBox="0 0 34 34">
	<g transform="translate(0,-1036.3622)">
		<g transform="translate(1.0146668,-0.00305963)">
			<g transform="translate(-1.0281541,1.0030596)">
				<g>
					<path d="M15.2,1062.3l-0.3-0.2c-4.2-2.8-11.3-8.3-11.3-13.2c0-4.2,2.9-7.3,6.8-7.3c1.6,0,3.1,0.7,4.8,2.4      c1.7-1.6,3.3-2.4,4.9-2.4c1.8,0,3.4,0.7,4.6,1.9c1.3,1.4,2.1,3.3,2,5.5c-0.1,5.3-8.7,11.5-11.3,13.2L15.2,1062.3z M10.4,1042.6      c-3.4,0-5.8,2.7-5.8,6.3c0,4.5,7.2,9.9,10.6,12.2c5.1-3.5,10.5-8.4,10.6-12.2c0-1.9-0.6-3.6-1.7-4.7c-1-1-2.4-1.6-3.9-1.6      c-1.5,0-3,0.8-4.6,2.4l-0.4,0.4l-0.4-0.4C13.2,1043.4,11.8,1042.6,10.4,1042.6z" vector-effect="non-scaling-stroke"/>
				</g>
			</g>
		</g>
	</g>
</symbol>

<symbol id="plus-secondary" viewBox="0 0 50 50">
	<g transform="translate(1, 1)"><path d="M46,22H26V2c0-1.1-0.9-2-2-2s-2,0.9-2,2v20H2c-1.1,0-2,0.9-2,2s0.9,2,2,2h20v20c0,1.1,0.9,2,2,2s2-0.9,2-2V26h20  c1.1,0,2-0.9,2-2S47.1,22,46,22z" vector-effect="non-scaling-stroke"/></g>
</symbol>

<symbol id="minus" viewBox="0 0 50 50">
	<g transform="translate(1, 1)"><path d="M46,22H2c-1.1,0-2,0.9-2,2s0.9,2,2,2h44c1.1,0,2-0.9,2-2S47.1,22,46,22z" vector-effect="non-scaling-stroke" /></g>
</symbol>

<symbol id="arrow-left" viewBox="0 0 24 24">
<g><rect display="none" fill="#FFA400" width="24" height="24" vector-effect="non-scaling-stroke"/> <rect id="_x3C_Slice_x3E__126_" display="none" fill="none" width="24" height="24" vector-effect="non-scaling-stroke"/> <polygon fill-rule="evenodd" clip-rule="evenodd" points="10,10 10,4 0,12 10,20 10,14 24,14 24,10 " vector-effect="non-scaling-stroke"/> </g>
</symbol>

<symbol id="clock" viewBox="0 0 17 17">
<g>
	<g>
		<path d="M7.5,15C3.3,15,0,11.7,0,7.5S3.3,0,7.5,0S15,3.3,15,7.5l0,0C14.9,11.6,11.6,14.9,7.5,15z M7.5,1.2C4,1.2,1.2,4,1.2,7.5    s2.9,6.3,6.3,6.3s6.3-2.9,6.3-6.3C13.7,4,11,1.2,7.5,1.2z" vector-effect="non-scaling-stroke"/>
		<path d="M9.7,10.3c-0.1,0-0.2,0-0.3-0.1L7.1,8.7C6.9,8.7,6.8,8.4,6.8,8.3V4.1c0-0.3,0.2-0.6,0.6-0.6c0.3,0,0.6,0.2,0.6,0.6v3.8    l2,1.3c0.2,0.2,0.3,0.6,0.2,0.8C10.1,10.2,9.8,10.3,9.7,10.3L9.7,10.3z" vector-effect="non-scaling-stroke"/>
	</g>
</g>
</symbol>

<symbol id="hotel" viewBox="0 0 83.30000305175781 83.30000305175781">
<g transform="translate(1, 1)"><path d="M65.7,67.3c-0.8,0-1.4-0.6-1.4-1.4v-3.7H16v3.7c0,0.8-0.6,1.4-1.4,1.4c-0.8,0-1.4-0.6-1.4-1.4V36.6c0-0.8,0.6-1.4,1.4-1.4  c0.8,0,1.4,0.6,1.4,1.4v17.4h48.2v-4.8c0-0.8,0.6-1.4,1.4-1.4s1.4,0.6,1.4,1.4v16.7C67.1,66.6,66.4,67.3,65.7,67.3z M16,59.3h48.2  v-2.5H16V59.3z M23.6,52c-2.7,0-4.9-2.1-5.1-4.8c-0.1-1.4,0.3-2.7,1.2-3.8c0.9-1,2.1-1.7,3.5-1.8c0.1,0,0.2,0,0.4,0  c2.7,0,5,2.1,5.2,4.8c0.1,1.4-0.3,2.7-1.2,3.8c-0.9,1-2.2,1.7-3.5,1.8C23.9,52,23.8,52,23.6,52z M23.5,44.5c-0.6,0-1.2,0.3-1.6,0.8  c-0.4,0.5-0.6,1.1-0.6,1.7c0.1,1.2,1.1,2.1,2.4,2.1l0.1,0c0.6,0,1.2-0.3,1.6-0.8s0.6-1.1,0.6-1.7c-0.1-1.2-1.1-2.2-2.3-2.2  C23.6,44.5,23.5,44.5,23.5,44.5z M32,52c-0.8,0-1.4-0.6-1.4-1.4V43c0-0.8,0.6-1.4,1.4-1.4h23.5c2.8,0,5.1,2.3,5.1,5.1v3.8  c0,0.8-0.6,1.4-1.4,1.4H32z M33.4,49.2h24.3v-2.4c0-1.3-1-2.3-2.3-2.3H33.4V49.2z M16.4,26.3l23.7-9.8l23.8,9.8  c0.2,0.1,0.4,0.1,0.5,0.1c0.6,0,1.1-0.3,1.3-0.9c0.1-0.4,0.1-0.7,0-1.1s-0.4-0.6-0.8-0.8l-24.3-10c-0.2-0.1-0.4-0.1-0.5-0.1  c-0.2,0-0.4,0-0.5,0.1l-24.2,10c-0.7,0.3-1.1,1.1-0.8,1.8c0.2,0.5,0.7,0.9,1.3,0.9C16,26.4,16.2,26.4,16.4,26.3z" vector-effect="non-scaling-stroke"/></g>
</symbol>

<symbol id="meal" viewBox="0 0 83.30000305175781 83.30000305175781">
<g transform="translate(1, 1)"><path d="M72.5,54.6C72.5,54.5,72.5,54.5,72.5,54.6c0-0.1,0-0.1,0-0.1c0-0.2,0-0.3-0.1-0.5c0,0,0,0,0-0.1c-0.1-0.2-0.2-0.3-0.3-0.5  c0,0,0,0,0,0c0,0,0,0,0,0c-0.1-0.1-0.3-0.2-0.4-0.3c0,0,0,0,0,0C71.5,53,71.3,53,71.1,53c0,0,0,0-0.1,0c0,0,0,0-0.1,0h-1.3  C69,39.5,58.6,28.5,45.1,26.3c0.4-0.8,0.7-1.6,0.7-2.6c0-2.9-2.3-5.2-5.2-5.2s-5.2,2.3-5.2,5.2c0,0.9,0.3,1.8,0.7,2.5  c-13.7,1.9-24.4,13.1-25.2,26.7h-0.7c0,0,0,0-0.1,0c0,0,0,0-0.1,0C10,53,9.8,53,9.6,53.1c0,0,0,0,0,0c-0.2,0.1-0.3,0.2-0.4,0.3  c0,0,0,0,0,0c0,0,0,0,0,0c-0.1,0.1-0.2,0.3-0.3,0.5c0,0,0,0,0,0.1c0,0.1-0.1,0.3-0.1,0.5c0,0,0,0,0,0.1c0,0,0,0,0,0.1  c0,0.2,0.1,0.3,0.1,0.5c0,0,0,0,0,0c0.1,0.2,0.2,0.3,0.3,0.4c0,0,0,0,0,0l7.2,6.5c0,0,0,0,0,0c0.1,0.1,0.3,0.2,0.4,0.3  c0,0,0,0,0.1,0c0.2,0.1,0.3,0.1,0.5,0.1l0,0l0,0l0,0h46.4c0.2,0,0.3,0,0.5-0.1c0,0,0,0,0.1,0c0.2-0.1,0.3-0.2,0.4-0.3c0,0,0,0,0,0  l7.2-6.5c0,0,0,0,0,0c0.1-0.1,0.2-0.3,0.3-0.4c0,0,0,0,0,0C72.4,54.9,72.5,54.7,72.5,54.6z M63.2,59.4H18l-3.9-3.5h53L63.2,59.4z   M40.6,21.6c1.2,0,2.2,1,2.2,2.2s-1,2.2-2.2,2.2s-2.2-1-2.2-2.2S39.4,21.6,40.6,21.6z M40.3,28.9c14.1,0,25.6,10.6,26.4,24H13.9  C14.7,39.6,26.3,28.9,40.3,28.9z M24.4,37.5c-3,2.6-5.4,5.8-6.8,9.4c-0.3,0.8,0.1,1.6,0.9,1.9c0.2,0.1,0.4,0.1,0.5,0.1  c0.6,0,1.2-0.4,1.4-1c1.2-3.2,3.3-6,5.9-8.2c0.6-0.5,0.7-1.5,0.2-2.1C25.9,37,25,37,24.4,37.5z" vector-effect="non-scaling-stroke"/></g>
</symbol>

<symbol id="pin-circle" viewBox="0 0 34 34">
<g transform="translate(1, 1)"><path d="M15.9,2.8c-7.4,0-13.3,6-13.3,13.3c0,7.4,6,13.3,13.3,13.3s13.3-6,13.3-13.3C29.3,8.7,23.3,2.8,15.9,2.8z M19.7,19.7  c-2,2-5.4,2-7.4,0c-2-2-2-5.4,0-7.4c2-2,5.4-2,7.4,0C21.8,14.3,21.8,17.7,19.7,19.7z" vector-effect="non-scaling-stroke"/></g>
</symbol>

<symbol id="pin-map" viewBox="0 0 34 34">
<path d="M15.9,0.2c-7.4,0-13.3,6-13.3,13.3c0,7.4,6,13.3,13.3,13.3s13.3-6,13.3-13.3C29.3,6.1,23.3,0.2,15.9,0.2z   M19.7,17.1c-2,2-5.4,2-7.4,0s-2-5.4,0-7.4s5.4-2,7.4,0C21.8,11.7,21.8,15.1,19.7,17.1z" class="st0_1566245280990" vector-effect="non-scaling-stroke"/><path d="M25.5,3.9c-5.2-5.2-13.7-5.2-19,0c-5.2,5.2-5.2,13.7,0,19l8.8,8.8c0.4,0.4,1,0.4,1.4,0l8.8-8.8C30.7,17.7,30.7,9.2,25.5,3.9  z M22.3,13.6c0,0.1-0.1,0.1-0.2,0.1c-1.8,0.3-3.1,1.3-4.5,2.4c-0.8,0.7-1.8,1.3-2.7,1.8c-0.3,0.1-0.6,0.3-0.9,0.4l2.5,5.1  c0.1,0.1,0,0.3-0.1,0.4l-0.9,0.5c-0.1,0.1-0.3,0-0.3-0.1L8.4,10.4c-0.2-0.4,0-0.9,0.4-1c0.4-0.2,0.9,0,1,0.4l0.3,0.5  c1.3-0.4,2.4-1.2,3.5-2.1c1.4-1,2.8-2.1,4.8-2.5c0.1,0,0.2,0,0.3,0.1l3.7,7.5C22.3,13.4,22.3,13.5,22.3,13.6z" vector-effect="non-scaling-stroke"/>
</symbol>

<!--<symbol id="pin-flag" viewBox="0 0 34 34">-->
<!--<g transform="translate(1, 1)"><path d="M15.9,0.2c-7.4,0-13.3,6-13.3,13.3c0,7.4,6,13.3,13.3,13.3s13.3-6,13.3-13.3C29.3,6.1,23.3,0.2,15.9,0.2z   M19.7,17.1c-2,2-5.4,2-7.4,0s-2-5.4,0-7.4s5.4-2,7.4,0C21.8,11.7,21.8,15.1,19.7,17.1z" class="st0_1566245280990" vector-effect="non-scaling-stroke"/><path d="M25.5,3.9c-5.2-5.2-13.7-5.2-19,0c-5.2,5.2-5.2,13.7,0,19l8.8,8.8c0.4,0.4,1,0.4,1.4,0l8.8-8.8C30.7,17.7,30.7,9.2,25.5,3.9  z M22.3,13.6c0,0.1-0.1,0.1-0.2,0.1c-1.8,0.3-3.1,1.3-4.5,2.4c-0.8,0.7-1.8,1.3-2.7,1.8c-0.3,0.1-0.6,0.3-0.9,0.4l2.5,5.1  c0.1,0.1,0,0.3-0.1,0.4l-0.9,0.5c-0.1,0.1-0.3,0-0.3-0.1L8.4,10.4c-0.2-0.4,0-0.9,0.4-1c0.4-0.2,0.9,0,1,0.4l0.3,0.5  c1.3-0.4,2.4-1.2,3.5-2.1c1.4-1,2.8-2.1,4.8-2.5c0.1,0,0.2,0,0.3,0.1l3.7,7.5C22.3,13.4,22.3,13.5,22.3,13.6z" vector-effect="non-scaling-stroke"/></g>-->
<!--</symbol>-->

<symbol id="pin-flag" viewBox="0 0 34 34">
    <g xmlns="http://www.w3.org/2000/svg" transform="translate(1, 1)"><style type="text/css">
        .st0_1566245280990{display:none;}
    </style><path d="M15.9,0.2c-7.4,0-13.3,6-13.3,13.3c0,7.4,6,13.3,13.3,13.3s13.3-6,13.3-13.3C29.3,6.1,23.3,0.2,15.9,0.2z   M19.7,17.1c-2,2-5.4,2-7.4,0s-2-5.4,0-7.4s5.4-2,7.4,0C21.8,11.7,21.8,15.1,19.7,17.1z" class="st0_1566245280990" vector-effect="non-scaling-stroke" style="fill: rgb(250, 171, 26);"/><path d="M25.5,3.9c-5.2-5.2-13.7-5.2-19,0c-5.2,5.2-5.2,13.7,0,19l8.8,8.8c0.4,0.4,1,0.4,1.4,0l8.8-8.8C30.7,17.7,30.7,9.2,25.5,3.9  z M22.3,13.6c0,0.1-0.1,0.1-0.2,0.1c-1.8,0.3-3.1,1.3-4.5,2.4c-0.8,0.7-1.8,1.3-2.7,1.8c-0.3,0.1-0.6,0.3-0.9,0.4l2.5,5.1  c0.1,0.1,0,0.3-0.1,0.4l-0.9,0.5c-0.1,0.1-0.3,0-0.3-0.1L8.4,10.4c-0.2-0.4,0-0.9,0.4-1c0.4-0.2,0.9,0,1,0.4l0.3,0.5  c1.3-0.4,2.4-1.2,3.5-2.1c1.4-1,2.8-2.1,4.8-2.5c0.1,0,0.2,0,0.3,0.1l3.7,7.5C22.3,13.4,22.3,13.5,22.3,13.6z" vector-effect="non-scaling-stroke" style="fill: rgb(250, 171, 26);"/></g>
</symbol>

<symbol id="arrow-down" viewBox="2 2 20 20">
    <g xmlns="http://www.w3.org/2000/svg"><path xmlns:default="http://www.w3.org/2000/svg" d="M16.59 8.59L12 13.17 7.41 8.59 6 10l6 6 6-6z" style="fill: rgb(1, 8, 12);" vector-effect="non-scaling-stroke"/></g>
</symbol>

<symbol id="list1" viewBox="0 0 34 34">
<g transform="translate(1, 1)"><path d="M31.1,2.1h-30c-0.6,0-1,0.4-1,1v2c0,0.6,0.4,1,1,1h30c0.6,0,1-0.4,1-1v-2C32.1,2.6,31.7,2.1,31.1,2.1z M31.1,10.1h-30  c-0.6,0-1,0.4-1,1v2c0,0.6,0.4,1,1,1h30c0.6,0,1-0.4,1-1v-2C32.1,10.6,31.7,10.1,31.1,10.1z M31.1,18.1h-30c-0.6,0-1,0.4-1,1v2  c0,0.6,0.4,1,1,1h30c0.6,0,1-0.4,1-1v-2C32.1,18.6,31.7,18.1,31.1,18.1z M31.1,26.1h-30c-0.6,0-1,0.4-1,1v2c0,0.6,0.4,1,1,1h30  c0.6,0,1-0.4,1-1v-2C32.1,26.6,31.7,26.1,31.1,26.1z" vector-effect="non-scaling-stroke"/></g>
</symbol>

<symbol id="list2" viewBox="0 0 34 34">
<g transform="translate(1, 1)"><path d="M13,0H1C0.4,0,0,0.4,0,1v12c0,0.6,0.4,1,1,1h12c0.6,0,1-0.4,1-1V1C14,0.4,13.6,0,13,0z M31,0H19c-0.6,0-1,0.4-1,1v12  c0,0.6,0.4,1,1,1h12c0.6,0,1-0.4,1-1V1C32,0.4,31.6,0,31,0z M13,18H1c-0.6,0-1,0.4-1,1v12c0,0.6,0.4,1,1,1h12c0.6,0,1-0.4,1-1V19  C14,18.4,13.6,18,13,18z M31,18H19c-0.6,0-1,0.4-1,1v12c0,0.6,0.4,1,1,1h12c0.6,0,1-0.4,1-1V19C32,18.4,31.6,18,31,18z" vector-effect="non-scaling-stroke"/></g>
</symbol>

<symbol id="sorting" viewBox="0 0 84 84">
<g transform="translate(1, 1)"><path d="M52.9,57.2c-0.9,0-1.6-0.7-1.6-1.8V19.7L45,26.1c-0.3,0.3-0.9,0.5-1.4,0.5c-0.5,0-0.9-0.2-1.3-0.5c-0.7-0.7-0.7-1.8,0-2.5  l9.3-9.5c0.2-0.2,0.4-0.3,0.7-0.4c0.3-0.1,0.5-0.1,0.6-0.1c0,0,0,0,0,0c0.2,0,0.4,0,0.6,0.1l0.1,0c0.3,0.1,0.5,0.2,0.6,0.4l9.3,9.5  c0.7,0.7,0.7,1.8-0.1,2.5c-0.3,0.3-0.8,0.5-1.3,0.5c-0.5,0-1-0.2-1.4-0.5l-6.3-6.4v35.7C54.5,56.5,53.8,57.2,52.9,57.2z M22.6,25.7  c0.9,0,1.6,0.7,1.6,1.8v35.7l6.3-6.4c0.3-0.3,0.9-0.5,1.4-0.5c0.5,0,0.9,0.2,1.3,0.5c0.7,0.7,0.7,1.8,0,2.5l-9.3,9.5  c-0.2,0.2-0.4,0.3-0.7,0.4c-0.3,0.1-0.5,0.1-0.6,0.1c0,0,0,0,0,0c-0.2,0-0.4,0-0.6-0.1l-0.1,0c-0.3-0.1-0.5-0.2-0.6-0.4L12,59.3  c-0.7-0.7-0.7-1.8,0.1-2.5c0.3-0.3,0.8-0.5,1.3-0.5c0.5,0,1,0.2,1.4,0.5l6.3,6.4V27.5C21,26.4,21.7,25.7,22.6,25.7z" vector-effect="non-scaling-stroke"/></g>
</symbol>

<symbol id="filter" viewBox="0 0 84 84">
<g><path d="M41,69.9c-3.8,0-7-2.6-7.9-6.1h-22c-1.1,0-2-0.9-2-2c0-1.1,0.9-2,2-2h22c0.9-3.6,4.2-6.1,7.9-6.1c3.8,0,7,2.6,7.9,6.1h22   c1.1,0,2,0.9,2,2c0,1.1-0.9,2-2,2h-22C48,67.3,44.8,69.9,41,69.9z M41,57.6c-2.3,0-4.1,1.8-4.1,4.1s1.8,4.1,4.1,4.1   c2.3,0,4.1-1.8,4.1-4.1S43.3,57.6,41,57.6z M25.7,49.2c-3.8,0-7-2.6-7.9-6.1h-6.7c-1.1,0-2-0.9-2-2c0-1.1,0.9-2,2-2h6.7   c0.9-3.6,4.2-6.1,7.9-6.1s7,2.6,7.9,6.1h37.3c1.1,0,2,0.9,2,2c0,1.1-0.9,2-2,2H33.6C32.7,46.6,29.4,49.2,25.7,49.2z M25.7,36.9   c-2.3,0-4.1,1.8-4.1,4.1c0,2.3,1.8,4.1,4.1,4.1s4.1-1.8,4.1-4.1C29.8,38.7,27.9,36.9,25.7,36.9z M56.3,28.5c-3.8,0-7-2.6-7.9-6.1   H11.1c-1.1,0-2-0.9-2-2c0-1.1,0.9-2,2-2h37.3c0.9-3.6,4.2-6.1,7.9-6.1s7,2.6,7.9,6.1h6.7c1.1,0,2,0.9,2,2c0,1.1-0.9,2-2,2h-6.7   C63.4,25.9,60.1,28.5,56.3,28.5z M56.3,16.2c-2.3,0-4.1,1.8-4.1,4.1c0,2.3,1.8,4.1,4.1,4.1s4.1-1.8,4.1-4.1   C60.4,18,58.6,16.2,56.3,16.2z" vector-effect="non-scaling-stroke"/></g>
</symbol>

<symbol id="users" viewBox="0 0 84 84">
    <g transform="translate(1, 1)"><path d="M11.8,86.7H70c3.7,0,6.8-3,6.8-6.7c0-3.4-2.5-7.1-5.7-8.3l-16.9-6.6c-0.6-0.2-0.9-0.6-1-0.9c-0.1-0.4,0.1-0.8,0.5-1.3  c0.4-0.4,8.9-10.4,8.9-21.7c0-11.9-9.7-21.5-21.5-21.5c-11.9,0-21.5,9.7-21.5,21.5c0,11.3,8.5,21.3,8.9,21.7  c0.4,0.5,0.6,0.9,0.5,1.3s-0.5,0.7-1,0.9l-16.9,6.6C7.5,72.9,5,76.6,5,80C5,83.7,8,86.7,11.8,86.7z M12.2,75.4l16.9-6.6  c1.8-0.7,3-2,3.4-3.7c0.4-1.6-0.1-3.4-1.3-4.9c-0.1-0.1-7.9-9.2-7.9-19.1c0-9.7,7.9-17.5,17.5-17.5c9.7,0,17.5,7.9,17.5,17.5  c0,9.8-7.8,19-7.9,19.1c-1.2,1.4-1.7,3.2-1.3,4.9c0.4,1.6,1.7,3,3.4,3.7l16.9,6.6c1.7,0.7,3.2,2.8,3.2,4.6c0,1.5-1.3,2.7-2.8,2.7  h-58C10.2,82.8,9,81.5,9,80C9,78.2,10.5,76.1,12.2,75.4z M94.6,67.8c-2.1-5.9-9.8-7.4-14.9-9.4c-1.8-0.7-5.8-1.4-7.2-2.8  c-2-1.9,2.5-6.2,3.4-7.8c5-8.4,7.2-18.9,1.6-27.6c-6.4-10-19.2-12.7-29.3-7c-2.2,1.3-0.2,4.7,2,3.4c12.2-6.8,27.4,2.1,26.6,16.3  c-0.4,5.4-2.8,10.6-5.8,15c-1.5,2.2-4,4.4-3.5,7.3c0.5,2.9,3.1,3.9,5.5,4.8c3.1,1.2,6.1,2.4,9.2,3.6c2.3,0.9,5.8,1.6,7.6,3.6  c2.7,3.1,0.3,6-3.1,6c-1.6,0-3.1,0-4.7,0c-2.6,0-2.6,4,0,4c2.5,0,5.5,0.4,8-0.2C94.1,76,95.9,71.7,94.6,67.8z" vector-effect="non-scaling-stroke" /></g>
</symbol>
</svg>
