<svg version="1.2" xmlns="http://www.w3.org/2000/svg" xmlns:xlink="http://www.w3.org/1999/xlink" overflow="visible" preserveAspectRatio="none" viewBox="0 0 324.5 229.10000610351562" xml:space="preserve" height="26" width="37" y="0px" x="0px" id="Layer_1_1569012455060"><g transform="translate(1, 1)"><style type="text/css">
	.st0_1569012455060{fill:#006FCF;}
</style><path d="M292.6,0H29.9C13.4,0,0,13.4,0,29.9v48l10.3-24.1h23.1l5.1,11.5V53.8h28.3l3.4,9.8l3.3-9.8h121.4v2.5v1.9  c1.1-0.7,2.2-1.3,3.3-1.9c1-0.5,2-0.8,3.1-1.2c1.4-0.4,2.8-0.7,4.2-1c1.7-0.3,3.4-0.4,5.2-0.4h37.2l5,11.4V53.8h22.5l5.7,9v-9H307  v56.3h-24.2l-5.3-8.4v8.4h-34.8l-3.1-8.1h-5.7l-3,8.1h-20.8c-1.9,0-3.9-0.2-5.9-0.5c-1.2-0.2-2.5-0.5-3.7-0.9c-1-0.3-2-0.7-2.9-1.1  c-0.9-0.4-1.9-0.9-2.8-1.5v2.3v1.8h-34.7l-6.3-8.2v8.2H28.2l-3.1-8.1h-5.7l-3,8.1H0v87.1c0,16.5,13.4,29.9,29.9,29.9h262.8  c16.5,0,29.9-13.4,29.9-29.9V29.9C322.5,13.4,309.1,0,292.6,0z M322.3,182.3c-1.3,0.8-2.7,1.4-4.1,2c-2.6,1-5.6,1.5-8.7,1.5H201  l-6.3-8.2v8.2h-25v-14.3c-3.6,1.3-7.6,2.1-12.1,2.1h0.4v12.1h-35.9l-5.2-7.3l-5,7.3H54.7v-56.3h57.5l5,7.2l5.1-7.2h197.1h2.8V182.3z   M309.7,169.1h-19.5v7.6h19.2c8.2,0,13.1-5,13.1-12.1c0-6.8-4.4-10.7-11.8-10.7H302c-2.2,0-3.7-1.4-3.7-3.6c0-2.3,1.5-3.8,3.7-3.8  h16.5l3.4-7.7h-19.6c-8.2,0-13.1,5-13.1,11.8c0,7,4.6,11,11.8,11h8.7c2.2,0,3.7,1.4,3.7,3.7C313.5,167.5,311.9,169.1,309.7,169.1z   M273.6,169.1h-19.5v7.6h19.2c8.2,0,13.1-5,13.1-12.1c0-6.8-4.4-10.7-11.8-10.7h-8.8c-2.2,0-3.7-1.4-3.7-3.6c0-2.3,1.5-3.8,3.7-3.8  h16.5l3.4-7.7h-19.6c-8.2,0-13.1,5-13.1,11.8c0,7,4.6,11,11.8,11h8.7c2.2,0,3.7,1.4,3.7,3.7C277.3,167.5,275.8,169.1,273.6,169.1z   M248.6,146.4v-7.7h-30.4v38h30.4V169h-21.3v-7.6h20.8v-7.6h-20.8v-7.4H248.6z M197.7,146.4c3.3,0,5,2.1,5,4.7c0,2.6-1.7,4.7-5,4.7  H187v-9.4H197.7z M187,163h4.3l11.3,13.7H214l-12.6-14c6.5-1.2,10.3-5.9,10.3-11.9c0-7.1-5-12-13.1-12h-20.6v38h9.1V163z   M163.8,151.4c0,2.6-1.6,4.7-4.8,4.7h-10.9v-9.3H159C162.2,146.8,163.8,148.8,163.8,151.4z M139,138.7v38h9.1v-12.5h11.4  c8.3,0,13.5-5.4,13.5-12.7c0-7.5-5-12.7-13.1-12.7H139z M125.6,176.7H137l-15.2-19.1l15.1-18.8h-11.1l-9.3,12l-9.3-12H95.8l15.2,19  l-15.1,19h11.1l9.3-12.2L125.6,176.7z M93.9,146.4v-7.7H63.6v38h30.4V169H72.7v-7.6h20.8v-7.6H72.7v-7.4H93.9z M270.2,78.2l-0.1-3.1  l1.9,3.1l14.5,22.7h10.6V63h-8.9v22l0.1,2.8l-1.7-2.8l-14.2-22h-11.2v38h8.9V78.2z M233.8,77.2l2.8-7.1l2.8,7.1l3.4,8.4h-12.2  L233.8,77.2z M248.9,101h10.2l-16.2-38h-12l-16.3,38h9.7l3.2-8.1h18.1L248.9,101z M209.2,101h0.5l3.7-8.1h-2.8  c-6.2,0-9.9-3.9-9.9-10.6v-0.5c0-6,3.3-10.5,9.8-10.5h9.9V63h-10.6c-11.7,0-18.1,7.9-18.1,18.7v0.7  C191.6,93.6,198.2,100.9,209.2,101z M176.8,101h9.1V84.3V63h-9.1v21V101z M157.6,70.8c3.3,0,5,2.1,5,4.7s-1.7,4.7-5,4.7h-10.7v-9.4  H157.6z M146.9,87.3h4.3l11.3,13.7h11.3l-12.6-14c6.5-1.2,10.3-5.9,10.3-11.9c0-7.1-5-12-13.1-12h-20.6v38h9.1V87.3z M131.2,70.7V63  h-30.4v38h30.4v-7.8h-21.3v-7.5h20.8v-7.6h-20.8v-7.4H131.2z M55.6,75.1l-0.2-10.3L65.9,101h8.2l10.5-36l-0.2,10v26h8.8V63H77.2  L70,89.9L62.8,63h-16v38h8.8V75.1z M19.3,77.2l2.8-7.1l2.8,7.1l3.4,8.4H16L19.3,77.2z M34.4,101h10.3L28.4,63h-12L0.2,101h9.7  l3.2-8.1h18.1L34.4,101z" class="st0_1569012455060" vector-effect="non-scaling-stroke"/></g></svg>