<svg version="1.2" xmlns="http://www.w3.org/2000/svg" xmlns:xlink="http://www.w3.org/1999/xlink" overflow="visible" preserveAspectRatio="none" viewBox="0 0 17 17" xml:space="preserve" y="0px" x="0px" id="Layer_1_1569241865955" width="14" height="14"><g transform="translate(1, 1)"><g>
	<g>
		<path d="M7.5,15C3.3,15,0,11.7,0,7.5S3.3,0,7.5,0S15,3.3,15,7.5l0,0C14.9,11.6,11.6,14.9,7.5,15z M7.5,1.2C4,1.2,1.2,4,1.2,7.5    s2.9,6.3,6.3,6.3s6.3-2.9,6.3-6.3C13.7,4,11,1.2,7.5,1.2z" vector-effect="non-scaling-stroke" style="fill: rgb(107, 148, 172);"/>
		<path d="M9.7,10.3c-0.1,0-0.2,0-0.3-0.1L7.1,8.7C6.9,8.7,6.8,8.4,6.8,8.3V4.1c0-0.3,0.2-0.6,0.6-0.6c0.3,0,0.6,0.2,0.6,0.6v3.8    l2,1.3c0.2,0.2,0.3,0.6,0.2,0.8C10.1,10.2,9.8,10.3,9.7,10.3L9.7,10.3z" vector-effect="non-scaling-stroke" style="fill: rgb(107, 148, 172);"/>
	</g>
</g></g></svg>