<svg width="23" height="23" viewBox="0 0 23 23" fill="none" xmlns="http://www.w3.org/2000/svg">
    <path d="M11.6579 22.0591L11.3755 21.8708C7.42259 19.2355 0.740234 14.0591 0.740234 9.44736C0.740234 5.49441 3.46965 2.57672 7.14023 2.57672C8.64612 2.57672 10.0579 3.23557 11.6579 4.83557C13.2579 3.32969 14.7638 2.57672 16.2696 2.57672C17.9638 2.57672 19.4696 3.23557 20.5991 4.36498C21.8226 5.68263 22.5755 7.47086 22.4814 9.54145C22.3873 14.5297 14.2932 20.3649 11.8461 21.9649L11.6579 22.0591ZM7.14023 3.5179C3.94023 3.5179 1.68141 6.05912 1.68141 9.44736C1.68141 13.6826 8.45788 18.765 11.6579 20.9297C16.4579 17.6355 21.5402 13.0238 21.6344 9.44736C21.6344 7.65912 21.0696 6.05905 20.0344 5.02376C19.0932 4.08258 17.7755 3.5179 16.3638 3.5179C14.952 3.5179 13.5402 4.27086 12.0344 5.77674L11.6579 6.15324L11.2814 5.77674C9.77553 4.27086 8.45788 3.5179 7.14023 3.5179Z" fill="#094C74" />
</svg>
