<svg version="1.2" xmlns="http://www.w3.org/2000/svg" xmlns:xlink="http://www.w3.org/1999/xlink" overflow="visible" preserveAspectRatio="none" viewBox="0 0 324.5 229.10000610351562" xml:space="preserve" height="26.04988911853565" width="36.95182509325321" y="0px" x="0px" id="Layer_1_1569012135693"><g transform="translate(1, 1)"><style type="text/css">
	.st0{fill:#253B80;}
	.st1{fill:#0066B2;}
	.st2_1569012135693{fill:#36495D;}
	.st3{fill:#006FCF;}
	.st4{fill:#FFFFFF;}
	.st5{fill:#F9A533;}
	.st6_1569012135693{fill:#F16522;}
	.st7_1569012135693{fill:#E41B24;}
	.st8_1569012135693{fill:#F89E1C;}
	.st9{filter:url(#Adobe_OpacityMaskFilter);}
	.st10{mask:url(#bluebox-55x54-b_2_);fill:#F7F7F7;}
	.st11{filter:url(#Adobe_OpacityMaskFilter_1_);}
	.st12{mask:url(#bluebox-55x54-d_2_);fill:#006FCF;}
</style><path d="M292.6,227.1H29.9C13.4,227.1,0,213.7,0,197.2V29.9C0,13.4,13.4,0,29.9,0h262.8  c16.5,0,29.9,13.4,29.9,29.9v167.3C322.5,213.7,309.1,227.1,292.6,227.1z" class="st2_1569012135693" id="XMLID_5__1569012135693" vector-effect="non-scaling-stroke"/><g id="XMLID_3__1569012135693">
	<rect height="97.4" width="54.2" class="st6_1569012135693" y="64.9" x="134.2" id="XMLID_41__1569012135693" vector-effect="non-scaling-stroke"/>
	<path d="M137.6,113.6c0-19.8,9.3-37.3,23.7-48.7c-10.5-8.3-23.8-13.2-38.3-13.2   c-34.2,0-61.9,27.7-61.9,61.9c0,34.2,27.7,61.9,61.9,61.9c14.4,0,27.7-4.9,38.3-13.2C146.9,150.9,137.6,133.3,137.6,113.6" class="st7_1569012135693" id="XMLID_40__1569012135693" vector-effect="non-scaling-stroke"/>
	<path d="M261.4,113.6c0,34.2-27.7,61.9-61.9,61.9c-14.4,0-27.7-4.9-38.3-13.2   c14.4-11.3,23.6-28.9,23.6-48.7s-9.2-37.3-23.6-48.7c10.5-8.3,23.8-13.2,38.3-13.2C233.7,51.6,261.4,79.4,261.4,113.6 M255.5,151.9   v-2h0.8v-0.4h-2v0.4h0.8v2H255.5z M259.5,151.9v-2.4h-0.6l-0.7,1.7l-0.7-1.7h-0.6v2.4h0.4v-1.8l0.7,1.6h0.5l0.7-1.6v1.8H259.5z" class="st8_1569012135693" id="XMLID_20__1569012135693" vector-effect="non-scaling-stroke"/>
</g></g></svg>