<svg version="1.2" xmlns="http://www.w3.org/2000/svg" xmlns:xlink="http://www.w3.org/1999/xlink" overflow="visible" preserveAspectRatio="none" viewBox="0 0 324.5 229.10000610351562" xml:space="preserve" height="26" width="37" y="0px" x="0px" id="Layer_1_1569012149659"><g transform="translate(1, 1)"><style type="text/css">
	.st0_1569012149659{fill:#253B80;}
	.st1{fill:#0066B2;}
	.st2{fill:#36495D;}
	.st3{fill:#006FCF;}
	.st4_1569012149659{fill:#FFFFFF;}
	.st5{fill:#F9A533;}
	.st6{fill:#F16522;}
	.st7{fill:#E41B24;}
	.st8{fill:#F89E1C;}
	.st9{filter:url(#Adobe_OpacityMaskFilter);}
	.st10{mask:url(#bluebox-55x54-b_2_);fill:#F7F7F7;}
	.st11{filter:url(#Adobe_OpacityMaskFilter_1_);}
	.st12{mask:url(#bluebox-55x54-d_2_);fill:#006FCF;}
</style><path d="M294.6,227.1H31.9C15.4,227.1,2,213.7,2,197.2V29.9C2,13.4,15.4,0,31.9,0h262.8  c16.5,0,29.9,13.4,29.9,29.9v167.3C324.5,213.7,311.1,227.1,294.6,227.1z" class="st0_1569012149659" id="XMLID_2__1569012149659" vector-effect="non-scaling-stroke"/><g id="XMLID_1__1569012149659">
	<path d="M79.4,99.9c-1,6.3-5.8,6.3-10.4,6.3h-2.7l1.9-11.8c0.1-0.7,0.7-1.2,1.4-1.2h1.2   c3.2,0,6.2,0,7.7,1.8C79.5,96.1,79.8,97.7,79.4,99.9z M77.4,83.5H59.8c-1.2,0-2.2,0.9-2.4,2.1l-7.1,45.1c-0.1,0.9,0.5,1.7,1.4,1.7   h8.4c1.2,0,2.2-0.9,2.4-2.1l1.9-12.2c0.2-1.2,1.2-2.1,2.4-2.1h5.6c11.6,0,18.3-5.6,20-16.7c0.8-4.9,0-8.7-2.2-11.3   C87.7,85,83.3,83.5,77.4,83.5z" class="st4_1569012149659" id="XMLID_57__1569012149659" vector-effect="non-scaling-stroke"/>
	<path d="M118.2,116.1c-0.8,4.8-4.6,8-9.5,8c-2.4,0-4.4-0.8-5.6-2.3c-1.2-1.5-1.7-3.6-1.3-5.9   c0.8-4.8,4.6-8.1,9.4-8.1c2.4,0,4.3,0.8,5.6,2.3C118.1,111.7,118.6,113.8,118.2,116.1z M129.9,99.7h-8.4c-0.7,0-1.3,0.5-1.4,1.2   l-0.4,2.4l-0.6-0.9c-1.8-2.6-5.9-3.5-9.9-3.5c-9.3,0-17.2,7-18.8,16.9c-0.8,4.9,0.3,9.6,3.1,12.9c2.6,3,6.2,4.3,10.6,4.3   c7.5,0,11.6-4.8,11.6-4.8l-0.4,2.3c-0.1,0.9,0.5,1.7,1.4,1.7h7.6c1.2,0,2.2-0.9,2.4-2.1l4.5-28.8   C131.5,100.5,130.8,99.7,129.9,99.7z" class="st4_1569012149659" id="XMLID_54__1569012149659" vector-effect="non-scaling-stroke"/>
	<path d="M174.8,99.7h-8.5c-0.8,0-1.6,0.4-2,1.1L152.6,118l-4.9-16.5c-0.3-1-1.3-1.7-2.3-1.7H137   c-1,0-1.7,1-1.4,1.9l9.3,27.3l-8.8,12.4c-0.7,1,0,2.3,1.2,2.3h8.4c0.8,0,1.6-0.4,2-1L176,102C176.6,101,175.9,99.7,174.8,99.7z" class="st4_1569012149659" id="XMLID_33__1569012149659" vector-effect="non-scaling-stroke"/>
	<path d="M204.8,99.9c-1,6.3-5.8,6.3-10.4,6.3h-2.6l1.9-11.8c0.1-0.7,0.7-1.2,1.4-1.2h1.2   c3.2,0,6.2,0,7.7,1.8C204.8,96.1,205.1,97.7,204.8,99.9z M202.7,83.5h-17.6c-1.2,0-2.2,0.9-2.4,2.1l-7.1,45.1   c-0.1,0.9,0.5,1.7,1.4,1.7h9c0.8,0,1.6-0.6,1.7-1.4l2-12.8c0.2-1.2,1.2-2.1,2.4-2.1h5.6c11.6,0,18.3-5.6,20-16.7   c0.8-4.9,0-8.7-2.2-11.3C213.1,85,208.6,83.5,202.7,83.5z" class="st4_1569012149659" id="XMLID_38__1569012149659" vector-effect="non-scaling-stroke"/>
	<path d="M243.5,116.1c-0.8,4.8-4.6,8-9.5,8c-2.4,0-4.4-0.8-5.6-2.3c-1.2-1.5-1.7-3.6-1.3-5.9   c0.8-4.8,4.6-8.1,9.4-8.1c2.4,0,4.3,0.8,5.6,2.3C243.4,111.7,243.9,113.8,243.5,116.1z M255.3,99.7h-8.4c-0.7,0-1.3,0.5-1.4,1.2   l-0.4,2.4l-0.6-0.9c-1.8-2.6-5.9-3.5-9.9-3.5c-9.3,0-17.2,7-18.8,16.9c-0.8,4.9,0.3,9.6,3.1,12.9c2.6,3,6.2,4.3,10.6,4.3   c7.5,0,11.6-4.8,11.6-4.8l-0.4,2.3c-0.1,0.9,0.5,1.7,1.4,1.7h7.6c1.2,0,2.2-0.9,2.4-2.1l4.6-28.8   C256.9,100.5,256.2,99.7,255.3,99.7z" class="st4_1569012149659" id="XMLID_21__1569012149659" vector-effect="non-scaling-stroke"/>
	<path d="M265.2,84.7l-7.2,45.9c-0.1,0.9,0.5,1.7,1.4,1.7h7.3c1.2,0,2.2-0.9,2.4-2.1l7.1-45.1   c0.1-0.9-0.5-1.7-1.4-1.7h-8.1C265.9,83.5,265.3,84,265.2,84.7z" class="st4_1569012149659" id="XMLID_28__1569012149659" vector-effect="non-scaling-stroke"/>
</g></g></svg>