<svg version="1.2" xmlns="http://www.w3.org/2000/svg" xmlns:xlink="http://www.w3.org/1999/xlink" overflow="visible" preserveAspectRatio="none" viewBox="0 0 34 34" xml:space="preserve" height="24" width="24" y="0px" x="0px" id="Layer_1_1569009355230"><g transform="translate(1, 1)"><style type="text/css">
	.st0_1569009355230{display:none;}
</style><path d="M25.5,3.9c-5.2-5.2-13.7-5.2-19,0c-5.2,5.2-5.2,13.7,0,19l8.8,8.8c0.4,0.4,1,0.4,1.4,0l8.8-8.8C30.7,17.7,30.7,9.2,25.5,3.9  z M19.7,17.1c-2,2-5.4,2-7.4,0s-2-5.4,0-7.4s5.4-2,7.4,0S21.8,15.1,19.7,17.1z" vector-effect="non-scaling-stroke" style="fill: rgb(181, 201, 213);"/><path d="M15.9,0.2c-7.4,0-13.3,6-13.3,13.3c0,7.4,6,13.3,13.3,13.3s13.3-6,13.3-13.3C29.3,6.1,23.3,0.2,15.9,0.2z   M19.7,17.1c-2,2-5.4,2-7.4,0c-2-2-2-5.4,0-7.4c2-2,5.4-2,7.4,0C21.8,11.7,21.8,15.1,19.7,17.1z" class="st0_1569009355230" vector-effect="non-scaling-stroke" style="fill: rgb(181, 201, 213);"/></g></svg>