<svg version="1.2" xmlns="http://www.w3.org/2000/svg" xmlns:xlink="http://www.w3.org/1999/xlink" overflow="visible" preserveAspectRatio="none" viewBox="0 0 102 102" xml:space="preserve" height="26" width="26" y="0px" x="0px" id="Layer_1_1569241191242"><g transform="translate(1, 1)"><path d="M3.8,62.2l1.4,1.4l7.8,7.8l1.4,1.4l1.4-1.4c3.5-3.5,9.2-3.5,12.7,0c3.5,3.5,3.5,9.2,0,12.7l-1.4,1.4l1.4,1.4l7.8,7.8  l1.4,1.4l1.4-1.4l56.6-56.6l1.4-1.4l-1.4-1.4L88,27.6l-1.4-1.4l-1.4,1.4c-3.5,3.5-9.2,3.5-12.7,0c-3.5-3.5-3.5-9.2,0-12.7l1.4-1.4  L72.4,12l-7.8-7.8l-1.4-1.4l-1.4,1.4L5.2,60.8C5.2,60.8,3.8,62.2,3.8,62.2z M9.5,62.2l36.1-36.1l4.2,4.2l2.8-2.8l-4.2-4.2L63.2,8.5  l5.1,5.1c-3.7,5.1-3.3,12.3,1.3,16.8c4.6,4.6,11.7,5,16.8,1.3l5.1,5.1L76.7,51.6l-4.2-4.2l-2.8,2.8l4.2,4.2L37.8,90.5l-5.1-5.1  c3.7-5.1,3.3-12.2-1.3-16.8c-4.6-4.6-11.8-5-16.8-1.3C14.6,67.3,9.5,62.2,9.5,62.2z M52.6,33.2l5.7,5.7l2.8-2.8l-5.7-5.7L52.6,33.2z   M34.8,59.5l13.6-13.6L45.6,43L32,56.6L34.8,59.5z M42.2,67l13.6-13.6L53,50.5L39.4,64.1L42.2,67z M61.1,41.7l5.7,5.7l2.8-2.8  l-5.7-5.7L61.1,41.7z" vector-effect="non-scaling-stroke" style="fill: rgb(9, 76, 116);"/></g></svg>