<svg version="1.2" xmlns="http://www.w3.org/2000/svg" xmlns:xlink="http://www.w3.org/1999/xlink" overflow="visible" preserveAspectRatio="none" viewBox="0 0 324.5 229.10000610351562" xml:space="preserve" height="26.04988911853565" width="36.95182509325321" y="0px" x="0px" id="Layer_1_1569012135695"><g transform="translate(1, 1)"><style type="text/css">
	.st0{fill:#253B80;}
	.st1_1569012135695{fill:#0066B2;}
	.st2{fill:#36495D;}
	.st3{fill:#006FCF;}
	.st4_1569012135695{fill:#FFFFFF;}
	.st5_1569012135695{fill:#F9A533;}
	.st6{fill:#F16522;}
	.st7{fill:#E41B24;}
	.st8{fill:#F89E1C;}
	.st9{filter:url(#Adobe_OpacityMaskFilter);}
	.st10{mask:url(#bluebox-55x54-b_2_);fill:#F7F7F7;}
	.st11{filter:url(#Adobe_OpacityMaskFilter_1_);}
	.st12{mask:url(#bluebox-55x54-d_2_);fill:#006FCF;}
</style><path d="M294.6,227.1H31.9C15.4,227.1,2,213.7,2,197.2V29.9C2,13.4,15.4,0,31.9,0h262.8  c16.5,0,29.9,13.4,29.9,29.9v167.3C324.5,213.7,311.1,227.1,294.6,227.1z" class="st1_1569012135695" id="XMLID_4__1569012135695" vector-effect="non-scaling-stroke"/><g id="XMLID_7__1569012135695">
	<g id="XMLID_9__1569012135695">
		<polygon points="149.6,149.1 132.8,149.1 143.3,84.6 160.1,84.6" class="st4_1569012135695" id="XMLID_19__1569012135695" vector-effect="non-scaling-stroke"/>
		<path d="M118.6,84.6l-16,44.4l-1.9-9.6l0,0l-5.7-29c0,0-0.7-5.8-8-5.8H60.6l-0.3,1.1    c0,0,8.1,1.7,17.6,7.4l14.6,56.1H110l26.7-64.5H118.6z" class="st4_1569012135695" id="XMLID_18__1569012135695" vector-effect="non-scaling-stroke"/>
		<path d="M250.8,149.1h15.4l-13.4-64.5h-13.5c-6.2,0-7.8,4.8-7.8,4.8l-25.1,59.7h17.5l3.5-9.6h21.4    L250.8,149.1z M232.3,126.3l8.8-24.1l5,24.1H232.3z" class="st4_1569012135695" id="XMLID_11__1569012135695" vector-effect="non-scaling-stroke"/>
		<path d="M207.7,100.1l2.4-13.9c0,0-7.4-2.8-15.1-2.8c-8.3,0-28.1,3.6-28.1,21.4    c0,16.7,23.2,16.9,23.2,25.6s-20.8,7.2-27.7,1.7l-2.5,14.5c0,0,7.5,3.6,19,3.6c11.5,0,28.8-5.9,28.8-22.1    c0-16.8-23.4-18.3-23.4-25.6C184.2,95.2,200.6,96.2,207.7,100.1z" class="st4_1569012135695" id="XMLID_10__1569012135695" vector-effect="non-scaling-stroke"/>
	</g>
	<path d="M100.7,119.4l-5.7-29c0,0-0.7-5.8-8-5.8H60.6l-0.3,1.1c0,0,12.7,2.6,24.9,12.5   C96.9,107.7,100.7,119.4,100.7,119.4z" class="st5_1569012135695" id="XMLID_8__1569012135695" vector-effect="non-scaling-stroke"/>
</g></g></svg>